<svg xmlns="http://www.w3.org/2000/svg" width="120.916" height="116.175" viewBox="0 0 120.916 116.175"><g id="Group_3968" data-name="Group 3968"><g id="Group_3968-2" data-name="Group 3968" fill="#0050b6"><path id="Path_3283" data-name="Path 3283" d="M373.15 1661.505c0 3.38-2.848 5.833-6.768 5.833a10.172 10.172 0 0 1-5.5-1.42 8.626 8.626 0 0 1-1.228-.91l2.565-3.5a5.88 5.88 0 0 0 4.768 1.687.047.047 0 0 0 .022 0c.048-.006.1-.013.14-.022a.708.708 0 0 0 .1-.02 1.47 1.47 0 0 0 1.358-1.452c0-1.047-1.026-1.3-3.274-1.845a.113.113 0 0 1-.032-.006l-.234-.058c-.124-.03-.247-.057-.374-.09-.32-.075-.643-.16-.96-.252-2.235-.668-4.258-1.878-4.258-4.867 0-3.17 2.736-5.472 6.5-5.472a8.785 8.785 0 0 1 4.544 1.075 8.43 8.43 0 0 1 .732.472c.162.117.317.238.468.367.017.015.274.222.29.237l-2.37 3.237-.31-.247a5.154 5.154 0 0 0-3.45-1.26c-1.367 0-1.978.728-1.978 1.45 0 .812.953 1.1 2.435 1.454.136.032.28.063.424.1q.29.07.61.142.27.062.55.133l.035.01c2.702.658 5.194 1.76 5.194 5.225z" transform="translate(-291.803 -1576.844)"/><path id="Path_3284" data-name="Path 3284" d="M235.414 1668.166h4.386v-6.59h6.594v-4.07H239.8v-2.9h7.86v-4.143h-12.246z" transform="translate(-211.15 -1577.725)"/><path id="Rectangle_1017" data-name="Rectangle 1017" transform="translate(40.778 72.734)" d="M0 0h4.43v17.707H0z"/><path id="Path_3285" data-name="Path 3285" d="M403.08 1654.53h4.745v13.636h4.286v-13.637h4.7v-4.07h-13.73z" transform="translate(-320.156 -1577.725)"/><path id="Path_3286" data-name="Path 3286" d="M320.143 1660.185a4.794 4.794 0 0 0 3.132-4.47c0-3.26-2.576-5.255-7.325-5.255h-6.618v17.683h4.8v-6.366h1.743l3.41 6.366h5.355zm-5.027-1.743h-.985v-4.4h.986c1.566 0 3.107.38 3.107 2.02 0 1.9-1.54 2.38-3.106 2.38z" transform="translate(-259.207 -1577.725)"/></g><g id="Group_3970" data-name="Group 3970"><g id="Group_3969" data-name="Group 3969" fill="#0050b6"><path id="Path_3287" data-name="Path 3287" d="M175.983 1729.968h-5.517v-6.64h-4.405v17.708h4.406v-6.736h5.517v6.734h4.406v-17.707h-4.407z" transform="translate(-166.06 -1625.1)"/><path id="Path_3288" data-name="Path 3288" d="M227.236 1722.644a9.122 9.122 0 0 0-6.414 15.53 9.07 9.07 0 0 0 15.483-6.436 9.092 9.092 0 0 0-9.07-9.094zm4.664 9.093a4.642 4.642 0 1 1-4.664-4.783 4.663 4.663 0 0 1 4.664 4.783z" transform="translate(-199.953 -1624.655)"/><path id="Rectangle_1018" data-name="Rectangle 1018" transform="translate(58.936 98.23)" d="M0 0h4.43v17.707H0z"/><path id="Path_3289" data-name="Path 3289" d="M373.237 1727.208v-3.88h-12.58v4.047h7.353l-7.572 10.418-.02.028v3.216h12.914v-4.094h-7.177z" transform="translate(-292.42 -1625.1)"/><path id="Path_3290" data-name="Path 3290" d="M414.543 1722.644a9.122 9.122 0 0 0-6.414 15.53 9.07 9.07 0 0 0 15.482-6.436 9.09 9.09 0 0 0-9.07-9.094zm4.663 9.093a4.642 4.642 0 1 1-4.663-4.783 4.662 4.662 0 0 1 4.663 4.783z" transform="translate(-321.728 -1624.655)"/><path id="Path_3291" data-name="Path 3291" d="M479.343 1723.33v10.235l-6.4-10.186-.03-.05h-4.523v17.707h4.21V1730.3l6.683 10.69.03.05h4.216v-17.708z" transform="translate(-362.617 -1625.1)"/><path id="Path_3292" data-name="Path 3292" d="M291.92 1733.054a4.793 4.793 0 0 0 3.133-4.47c0-3.26-2.576-5.255-7.326-5.255h-6.618v17.682h4.8v-6.366h1.742l3.41 6.366h5.355zm-5.026-1.743h-.985v-4.4h.984c1.566 0 3.107.38 3.107 2.022 0 1.9-1.54 2.38-3.106 2.38z" transform="translate(-240.858 -1625.1)"/></g></g><g id="Group_3971" data-name="Group 3971"><path id="Path_3293" data-name="Path 3293" d="M444.21 1612.794a2.1 2.1 0 1 1-2.1-2.047 2.058 2.058 0 0 1 2.1 2.047zm-3.684 0a1.587 1.587 0 0 0 1.6 1.636 1.568 1.568 0 0 0 1.56-1.623 1.58 1.58 0 1 0-3.16-.013zm1.26 1.074h-.473v-2.048a4.153 4.153 0 0 1 .787-.062 1.276 1.276 0 0 1 .712.15.568.568 0 0 1 .2.45.525.525 0 0 1-.425.474v.025a.6.6 0 0 1 .375.5 1.566 1.566 0 0 0 .15.512h-.512a1.762 1.762 0 0 1-.162-.5c-.038-.225-.163-.326-.424-.326h-.225zm.014-1.16h.225c.262 0 .475-.088.475-.3 0-.19-.138-.314-.437-.314a1.112 1.112 0 0 0-.262.026z" transform="translate(-344.16 -1551.906)" fill="#0050b6"/></g><g id="Group_3973" data-name="Group 3973"><path id="Path_3294" data-name="Path 3294" d="M312.12 1442.565h-62.974v53.993l8.467 8.983h54.507z" transform="translate(-220.078 -1442.565)" fill="#fff"/><g id="Group_3972" data-name="Group 3972"><path id="Path_3295" data-name="Path 3295" d="M352.928 1484.86v-42.294h-41.015a66.9 66.9 0 0 1 41.015 42.293" transform="translate(-260.885 -1442.566)" fill="#fe3b1f"/><path id="Path_3296" data-name="Path 3296" d="M307.6 1512.475a58.487 58.487 0 0 0-7.907-29.436l-14.22 9.808v15.3l-11.745-8.918-19.662 8.918 11.328-17.18-8.66-9.657 15.838-.4 12.262-14.893a58.545 58.545 0 0 0-35.684-12.388v53.335a5.768 5.768 0 0 0 5.768 5.768H307.6z" transform="translate(-220.078 -1449.76)" fill="#0050b6"/><path id="Path_3297" data-name="Path 3297" d="M352.97 1490.487v14.385l13.12.313a59.318 59.318 0 0 0-13.12-14.7" transform="translate(-287.577 -1473.72)" fill="#0050b6"/></g></g></g></svg>